<?xml version="1.0" standalone="no"?><!DOCTYPE svg PUBLIC "-//W3C//DTD SVG 1.1//EN" "http://www.w3.org/Graphics/SVG/1.1/DTD/svg11.dtd"><svg t="1635384364723" class="icon" viewBox="0 0 1024 1024" version="1.1" xmlns="http://www.w3.org/2000/svg" p-id="2821" xmlns:xlink="http://www.w3.org/1999/xlink" width="200" height="200"><defs><style type="text/css"></style></defs><path d="M853.333333 890.026667L527.146667 563.84a21.333333 21.333333 0 0 0-30.08 0L195.2 865.493333C192 869.76 170.666667 890.453333 170.666667 896v5.333333L165.12 896a21.333333 21.333333 0 0 1 0-30.08L496.853333 533.333333a21.333333 21.333333 0 0 1 30.08 0l331.946667 332.16a21.333333 21.333333 0 0 1 6.186667 15.146667L853.333333 874.666667c0-5.546667 4.266667 19.413333 0 15.36z m21.333334-414.72v426.666666a21.333333 21.333333 0 0 1-21.333334 21.333334H170.666667a21.333333 21.333333 0 0 1-21.333334-21.333334v-426.666666a21.333333 21.333333 0 0 1 10.24-17.706667 21.333333 21.333333 0 0 1 5.546667-18.773333L496.853333 106.666667a21.333333 21.333333 0 0 1 30.08 0l331.946667 332.16a21.333333 21.333333 0 0 1 5.546667 18.773333 21.333333 21.333333 0 0 1 10.24 17.706667z m-21.333334 192v-192l-192 192-21.333333-5.973334 11.946667-15.36L828.8 469.333333a21.333333 21.333333 0 0 0 0-30.08L527.146667 137.173333a21.333333 21.333333 0 0 0-30.08 0L195.2 438.826667a21.333333 21.333333 0 0 0 0 30.08l176.853333 176.853333 11.946667 15.573333-21.333333 5.333334-192-192v405.333333a21.333333 21.333333 0 0 0 21.333333 21.333333h640a21.333333 21.333333 0 0 0 21.333333-21.333333z" p-id="2822" fill="#cdcdcd"></path></svg>